#define pos_0_width 150
#define pos_0_height 200
static unsigned char pos_0_bits[] = {
   0x00, 0x00, 0x00, 0x00, 0x00, 0x00, 0x00, 0x00, 0x00, 0x00, 0x00, 0x00,
   0x00, 0x00, 0x00, 0x00, 0x00, 0xff, 0x3f, 0x00, 0x00, 0x00, 0x00, 0x00,
   0x00, 0x00, 0x00, 0x00, 0x00, 0x10, 0x00, 0x00, 0x00, 0x00, 0x00, 0x00,
   0xfe, 0x0f, 0x00, 0x00, 0x08, 0x00, 0x00, 0x00, 0x00, 0x08, 0x00, 0x00,
   0x10, 0x00, 0x00, 0x00, 0x00, 0x00, 0x00, 0xfc, 0x07, 0x00, 0x00, 0x08,
   0x00, 0x00, 0x00, 0x00, 0x08, 0x00, 0x00, 0x38, 0x00, 0x00, 0x00, 0x00,
   0x00, 0x00, 0xf8, 0x03, 0x00, 0x00, 0x1c, 0x00, 0x00, 0x00, 0x00, 0x1c,
   0x00, 0x00, 0xff, 0x00, 0x00, 0x00, 0x10, 0x00, 0x00, 0xf8, 0x03, 0x00,
   0x00, 0x1c, 0x00, 0x00, 0x00, 0x00, 0x1c, 0x00, 0x00, 0xff, 0x01, 0x00,
   0x00, 0x10, 0x00, 0x00, 0xf8, 0x03, 0x00, 0x00, 0x1c, 0x00, 0x00, 0x00,
   0x00, 0x1c, 0x00, 0x00, 0xfe, 0x00, 0x00, 0x00, 0x38, 0x00, 0x00, 0xbc,
   0x03, 0x00, 0xe0, 0xff, 0x07, 0x00, 0x00, 0xe0, 0xff, 0x07, 0x00, 0x7c,
   0x00, 0x00, 0x00, 0x38, 0x00, 0x00, 0x0c, 0x06, 0x00, 0xc0, 0xff, 0x01,
   0x00, 0x00, 0xc0, 0xff, 0x01, 0x00, 0x7c, 0x00, 0x00, 0x00, 0x00, 0x00,
   0x00, 0x00, 0x04, 0x00, 0x80, 0xff, 0x00, 0x00, 0x00, 0x80, 0xff, 0x00,
   0x00, 0xee, 0x00, 0x00, 0x00, 0x00, 0x00, 0x00, 0x00, 0x00, 0x00, 0x00,
   0x7f, 0x00, 0x00, 0x00, 0x00, 0x7f, 0x00, 0x00, 0x82, 0x00, 0x00, 0x00,
   0x00, 0x00, 0x00, 0x00, 0x00, 0x00, 0x00, 0x7f, 0x00, 0x00, 0x00, 0x00,
   0x7f, 0x00, 0x00, 0x00, 0x00, 0x00, 0x00, 0x00, 0x00, 0x00, 0x00, 0x00,
   0x00, 0x00, 0x7f, 0x00, 0x00, 0x00, 0x00, 0x7f, 0x00, 0x00, 0x00, 0x00,
   0x00, 0x00, 0x00, 0x00, 0x00, 0x00, 0x00, 0x00, 0x80, 0x77, 0x00, 0x00,
   0x00, 0x80, 0x77, 0x00, 0x00, 0x00, 0x00, 0x00, 0x00, 0x00, 0x00, 0x00,
   0x00, 0x00, 0x00, 0x80, 0xc1, 0x00, 0x00, 0x00, 0x80, 0xc1, 0x00, 0x00,
   0x00, 0x00, 0x00, 0x00, 0x00, 0x00, 0x00, 0x00, 0x00, 0x00, 0x00, 0x80,
   0x00, 0x00, 0x00, 0x00, 0x80, 0x00, 0x00, 0x00, 0x80, 0x00, 0x00, 0x00,
   0x00, 0x00, 0x00, 0x00, 0x00, 0x00, 0x00, 0x00, 0x00, 0x00, 0x00, 0x00,
   0x00, 0x00, 0x00, 0x80, 0x00, 0x00, 0x00, 0x00, 0x00, 0x00, 0x00, 0x00,
   0x00, 0x00, 0x00, 0x00, 0x00, 0x00, 0x00, 0x00, 0x00, 0x00, 0xc0, 0x01,
   0x00, 0x00, 0x80, 0x00, 0x00, 0x00, 0x00, 0x00, 0x00, 0x00, 0x00, 0x00,
   0x00, 0x00, 0x00, 0x00, 0x00, 0xc0, 0x01, 0x00, 0x00, 0x80, 0x00, 0x00,
   0x00, 0x00, 0x00, 0x00, 0x00, 0x00, 0x00, 0x00, 0x00, 0x00, 0x00, 0x00,
   0xc0, 0x01, 0x00, 0x00, 0xc0, 0x01, 0x00, 0x00, 0x00, 0x00, 0x00, 0x00,
   0x00, 0x00, 0x00, 0x00, 0x00, 0x00, 0x00, 0xfe, 0x7f, 0x00, 0x00, 0xf8,
   0x07, 0x00, 0x00, 0x00, 0x00, 0x00, 0x00, 0x00, 0x00, 0x00, 0x00, 0x00,
   0x00, 0x00, 0xfc, 0x1f, 0x00, 0x00, 0xf8, 0x0f, 0x00, 0x00, 0x00, 0x00,
   0x00, 0x00, 0x00, 0x00, 0x00, 0x00, 0x00, 0x00, 0x00, 0xf8, 0x0f, 0x00,
   0x00, 0xf0, 0x07, 0x00, 0x00, 0x00, 0x00, 0x00, 0x00, 0x00, 0x00, 0x80,
   0x00, 0x00, 0x00, 0x00, 0xf0, 0x07, 0x00, 0x00, 0xe0, 0x03, 0x00, 0x00,
   0x00, 0x00, 0x00, 0x00, 0x00, 0x00, 0x80, 0x00, 0x00, 0x00, 0x00, 0xf0,
   0x07, 0x00, 0x00, 0xe0, 0x03, 0x00, 0x00, 0x20, 0x00, 0x00, 0x40, 0x00,
   0x00, 0xc0, 0x01, 0x00, 0x00, 0x00, 0xf0, 0x07, 0x00, 0x00, 0x70, 0x07,
   0x00, 0x00, 0x20, 0x00, 0x80, 0x40, 0x00, 0x00, 0xc0, 0x01, 0x00, 0x10,
   0x00, 0x78, 0x07, 0x00, 0x00, 0x10, 0x04, 0x00, 0x00, 0x70, 0x00, 0xd0,
   0x61, 0x00, 0x00, 0x00, 0x00, 0x00, 0x10, 0x00, 0x18, 0x0c, 0x00, 0x00,
   0x00, 0x00, 0x00, 0x00, 0x70, 0x00, 0x70, 0x77, 0x00, 0x00, 0x00, 0x00,
   0x00, 0x38, 0x00, 0x00, 0x08, 0x00, 0x00, 0x00, 0x00, 0x00, 0x00, 0x00,
   0x00, 0x10, 0x5c, 0x00, 0x00, 0x00, 0x00, 0x00, 0xff, 0x00, 0x00, 0x00,
   0x00, 0x00, 0x00, 0x00, 0x00, 0x00, 0x00, 0x00, 0x10, 0x40, 0x00, 0x00,
   0x00, 0x00, 0x00, 0xff, 0x01, 0x00, 0x00, 0x00, 0x00, 0x00, 0x00, 0x00,
   0x00, 0x00, 0x00, 0x10, 0x40, 0x00, 0x00, 0x00, 0x00, 0x00, 0xfe, 0x00,
   0x00, 0x00, 0x00, 0x00, 0x00, 0x00, 0x00, 0x00, 0x00, 0x00, 0x10, 0x40,
   0x00, 0x00, 0x00, 0x00, 0x00, 0x7c, 0x00, 0x00, 0xf8, 0x00, 0x00, 0x00,
   0x00, 0x00, 0x00, 0x00, 0x00, 0x10, 0x40, 0x00, 0x00, 0x00, 0x00, 0x00,
   0x7c, 0x00, 0x00, 0x46, 0x03, 0x00, 0x00, 0x00, 0x00, 0x00, 0x00, 0x00,
   0x10, 0x42, 0x00, 0x00, 0x00, 0x00, 0x00, 0xee, 0x00, 0x00, 0x22, 0x07,
   0x00, 0x00, 0x00, 0x00, 0x10, 0xc0, 0xff, 0x9f, 0xcf, 0xff, 0xff, 0xff,
   0xff, 0xff, 0xff, 0xff, 0xff, 0x3f, 0xfd, 0xff, 0xff, 0xff, 0x3f, 0x10,
   0xc0, 0x00, 0xd0, 0x5a, 0x00, 0xfc, 0x01, 0x00, 0x00, 0xc0, 0x07, 0x00,
   0xb0, 0x04, 0x00, 0x00, 0x00, 0x10, 0x38, 0x80, 0xf1, 0x57, 0x52, 0x00,
   0x07, 0x1e, 0x00, 0x00, 0x7e, 0x78, 0x00, 0x60, 0x06, 0x00, 0x00, 0x00,
   0x10, 0x38, 0x00, 0x01, 0xfc, 0x7f, 0xf8, 0x00, 0xf0, 0xff, 0xc7, 0x03,
   0x00, 0x00, 0x20, 0x06, 0x00, 0x00, 0x00, 0x18, 0x38, 0x80, 0x01, 0x50,
   0x52, 0x00, 0x00, 0x00, 0x00, 0x7c, 0x00, 0x00, 0x00, 0x20, 0x05, 0x00,
   0x00, 0x00, 0xc8, 0x3f, 0xc0, 0xff, 0xdf, 0xda, 0xff, 0xff, 0xff, 0xff,
   0xff, 0xff, 0xff, 0xff, 0xff, 0xfc, 0xff, 0xff, 0xff, 0x8f, 0x3f, 0x00,
   0x00, 0x90, 0x4f, 0x00, 0x01, 0x00, 0x00, 0x20, 0x06, 0x00, 0x00, 0x07,
   0x06, 0x00, 0x00, 0x00, 0x00, 0x3f, 0x00, 0x00, 0x10, 0x42, 0x80, 0x03,
   0x00, 0x00, 0x38, 0x03, 0x00, 0x00, 0x9d, 0x03, 0x00, 0x00, 0x00, 0x00,
   0x3e, 0x00, 0x00, 0x10, 0x40, 0x80, 0x03, 0x00, 0x00, 0x8c, 0x01, 0x00,
   0x00, 0xf1, 0x00, 0x00, 0x00, 0x00, 0x00, 0x3e, 0x00, 0x00, 0x10, 0x40,
   0x80, 0x03, 0x00, 0x00, 0xe6, 0x00, 0x00, 0x00, 0x19, 0x00, 0x00, 0x00,
   0x00, 0x00, 0x3e, 0x00, 0x00, 0x10, 0x41, 0xfc, 0xff, 0x00, 0x00, 0x33,
   0x00, 0x00, 0x00, 0x1f, 0x00, 0x00, 0x00, 0x00, 0x00, 0x2f, 0x00, 0x00,
   0x10, 0x41, 0xf8, 0x3f, 0x00, 0xc0, 0x19, 0x00, 0x04, 0x00, 0x13, 0x00,
   0x00, 0x00, 0x00, 0x00, 0x03, 0x00, 0x00, 0x10, 0x42, 0xf0, 0x1f, 0x00,
   0x60, 0x0c, 0x00, 0x04, 0x00, 0x11, 0x00, 0x00, 0x00, 0x00, 0x00, 0x00,
   0x00, 0x00, 0x10, 0x42, 0xe0, 0x0f, 0x00, 0x30, 0x06, 0x00, 0x0e, 0x00,
   0x19, 0x00, 0x00, 0x00, 0x10, 0x00, 0x00, 0x00, 0x00, 0x10, 0x44, 0xe0,
   0x0f, 0x00, 0x18, 0x03, 0xc0, 0x3f, 0x00, 0x15, 0x00, 0x00, 0x00, 0x10,
   0x00, 0x00, 0x00, 0x00, 0x10, 0x44, 0xe0, 0x0f, 0x00, 0xcc, 0x01, 0xc0,
   0x7f, 0x00, 0x13, 0x00, 0x00, 0x00, 0x38, 0x00, 0x00, 0x00, 0x00, 0x10,
   0x44, 0xf0, 0x0e, 0x00, 0x67, 0x00, 0x80, 0x3f, 0x00, 0x19, 0x00, 0x00,
   0x00, 0x38, 0x00, 0x00, 0x00, 0x00, 0x10, 0x4c, 0x30, 0x18, 0x80, 0x31,
   0x00, 0x00, 0x1f, 0x00, 0x15, 0x00, 0x00, 0x00, 0x00, 0x00, 0x00, 0x00,
   0x00, 0x10, 0x48, 0x00, 0x10, 0xc0, 0x18, 0x00, 0x00, 0x1f, 0x00, 0x13,
   0x00, 0x00, 0x00, 0x00, 0x00, 0x00, 0x00, 0x00, 0x10, 0x48, 0x00, 0x00,
   0x60, 0x0c, 0x00, 0x80, 0x3b, 0x00, 0x19, 0x00, 0x00, 0x00, 0x00, 0x00,
   0x00, 0x00, 0x00, 0x10, 0x48, 0x00, 0x00, 0x30, 0x06, 0x00, 0x80, 0x20,
   0x00, 0x19, 0x00, 0x00, 0x00, 0x00, 0x00, 0x00, 0x40, 0x00, 0x10, 0x48,
   0x00, 0x00, 0x9c, 0x03, 0x00, 0x00, 0x00, 0x00, 0x15, 0x00, 0x00, 0x00,
   0x00, 0x00, 0x00, 0x40, 0x00, 0x10, 0x48, 0x00, 0x00, 0xc6, 0x00, 0x00,
   0x00, 0x00, 0x00, 0x13, 0x00, 0x00, 0x00, 0x00, 0x00, 0x00, 0xe0, 0x00,
   0x10, 0x48, 0x00, 0x00, 0x63, 0x00, 0x00, 0x00, 0x00, 0x00, 0x11, 0x00,
   0x00, 0x00, 0x00, 0x00, 0x00, 0xfc, 0x03, 0x10, 0x48, 0x00, 0x80, 0x31,
   0x00, 0x00, 0x00, 0x00, 0x00, 0x19, 0x00, 0x00, 0x00, 0x04, 0x00, 0x00,
   0xfc, 0x07, 0x10, 0x58, 0x00, 0xc0, 0x18, 0x00, 0x00, 0x00, 0x00, 0x00,
   0x15, 0x00, 0x00, 0x00, 0x04, 0x00, 0x00, 0xf8, 0x03, 0x10, 0x50, 0x00,
   0x70, 0x0e, 0x00, 0x00, 0x00, 0x00, 0xc0, 0x73, 0x00, 0x00, 0x00, 0x0e,
   0x00, 0x00, 0xf0, 0x01, 0x10, 0x52, 0x00, 0x18, 0x03, 0x00, 0x00, 0x00,
   0x00, 0x60, 0x9b, 0x00, 0x00, 0x00, 0x0e, 0x00, 0x00, 0xf0, 0x01, 0x10,
   0x51, 0x00, 0x8c, 0x01, 0x00, 0x00, 0x00, 0x00, 0x30, 0x2f, 0x01, 0x00,
   0x00, 0x0e, 0x00, 0x00, 0xb8, 0x03, 0x10, 0x51, 0x00, 0xc6, 0x00, 0x00,
   0x00, 0x00, 0x00, 0x90, 0x44, 0x01, 0x00, 0xf0, 0xff, 0x03, 0x00, 0x08,
   0x02, 0x90, 0x51, 0x00, 0x63, 0x00, 0x00, 0x00, 0x00, 0x00, 0xa0, 0xc4,
   0x00, 0x00, 0xe0, 0xff, 0x00, 0x00, 0x00, 0x00, 0x90, 0x50, 0xc0, 0x31,
   0x00, 0x00, 0x00, 0x00, 0x00, 0xe0, 0xe8, 0x01, 0x00, 0xc0, 0x7f, 0x00,
   0x00, 0x00, 0x00, 0x90, 0x50, 0x60, 0x1c, 0x00, 0x00, 0x00, 0x00, 0x00,
   0xb0, 0x3f, 0x01, 0x00, 0x80, 0x3f, 0x00, 0x00, 0x00, 0x00, 0x90, 0x56,
   0x30, 0x06, 0x00, 0x00, 0x00, 0x00, 0x00, 0x10, 0x11, 0x03, 0x00, 0x80,
   0x3f, 0x00, 0x00, 0x00, 0x00, 0x90, 0x57, 0x18, 0x03, 0x00, 0x00, 0x00,
   0x00, 0x00, 0x90, 0x10, 0x02, 0x00, 0x80, 0x3f, 0x00, 0x00, 0x00, 0x00,
   0x90, 0x55, 0x8c, 0x01, 0x00, 0x00, 0x00, 0x00, 0x00, 0x30, 0x21, 0x02,
   0x00, 0xc0, 0x3b, 0x00, 0x00, 0x00, 0x00, 0xd0, 0x54, 0xc7, 0x00, 0x00,
   0x00, 0x00, 0x00, 0x00, 0x60, 0xc2, 0x01, 0x00, 0xc0, 0x60, 0x00, 0x00,
   0x00, 0x00, 0x50, 0xd4, 0x61, 0x00, 0x00, 0x00, 0x00, 0x00, 0x00, 0xc0,
   0xff, 0x02, 0x00, 0x00, 0x40, 0x00, 0x00, 0x00, 0x00, 0x50, 0x56, 0x38,
   0x00, 0x00, 0x00, 0x00, 0x00, 0x00, 0xe0, 0x10, 0x04, 0x00, 0x00, 0x00,
   0x00, 0x00, 0x00, 0x00, 0xd0, 0x52, 0x0c, 0x00, 0x00, 0x00, 0x00, 0x00,
   0x00, 0xb0, 0x38, 0x08, 0x00, 0x00, 0x00, 0x00, 0x00, 0x00, 0x00, 0x90,
   0x53, 0x06, 0x00, 0x00, 0x00, 0x00, 0x00, 0x00, 0x90, 0xe8, 0x1f, 0x00,
   0x00, 0x00, 0x00, 0x00, 0x00, 0x00, 0x10, 0x50, 0x03, 0x00, 0x00, 0x00,
   0x00, 0x00, 0x00, 0x98, 0xcc, 0x30, 0x00, 0x00, 0x00, 0x00, 0x00, 0x00,
   0x00, 0x10, 0xd0, 0x01, 0x00, 0x00, 0x00, 0x00, 0x00, 0x00, 0x0c, 0x85,
   0x20, 0x00, 0x00, 0x00, 0x00, 0x00, 0x00, 0x00, 0x10, 0xd8, 0x00, 0x00,
   0x00, 0x00, 0x00, 0x00, 0x00, 0x0c, 0x83, 0x41, 0x00, 0x00, 0x00, 0x00,
   0x00, 0x00, 0x00, 0x10, 0x48, 0x00, 0x00, 0x00, 0x00, 0x00, 0x00, 0x00,
   0x0e, 0x01, 0xbe, 0x00, 0x00, 0x00, 0x00, 0x00, 0x00, 0x00, 0x10, 0x46,
   0x00, 0x00, 0x00, 0x00, 0x00, 0x00, 0x00, 0x8a, 0x01, 0xe2, 0x00, 0x00,
   0x00, 0x00, 0x00, 0x00, 0x00, 0x10, 0x43, 0x00, 0x00, 0x00, 0x00, 0x00,
   0x00, 0x00, 0x93, 0x00, 0x86, 0x01, 0x00, 0x00, 0x00, 0x00, 0x00, 0x00,
   0x90, 0x41, 0x00, 0x00, 0x00, 0x00, 0x00, 0x00, 0x00, 0xe1, 0x00, 0x0c,
   0x01, 0x00, 0x00, 0x00, 0x00, 0x00, 0x00, 0x90, 0x40, 0x00, 0x00, 0x00,
   0x00, 0x00, 0x00, 0x80, 0x61, 0x00, 0x08, 0x03, 0x00, 0x00, 0x00, 0x00,
   0x00, 0x00, 0xd0, 0x40, 0x00, 0x00, 0x00, 0x00, 0x00, 0x00, 0x80, 0x43,
   0x00, 0x38, 0x02, 0x00, 0x00, 0x00, 0x00, 0x00, 0x00, 0x50, 0x40, 0x00,
   0x00, 0x00, 0x00, 0x00, 0x00, 0x80, 0x46, 0x00, 0x38, 0x02, 0x00, 0x00,
   0x00, 0x00, 0x00, 0x00, 0x50, 0x40, 0x00, 0x00, 0x00, 0x00, 0x00, 0x00,
   0x80, 0x6c, 0x00, 0xd0, 0x02, 0x00, 0x00, 0x00, 0x00, 0x00, 0x00, 0x50,
   0x40, 0x00, 0x00, 0x00, 0x00, 0x00, 0x00, 0x80, 0x30, 0x00, 0x30, 0x03,
   0x00, 0x00, 0x00, 0x00, 0x00, 0x00, 0x30, 0x40, 0x00, 0x00, 0x00, 0x00,
   0x00, 0x00, 0x80, 0x20, 0x00, 0x20, 0x02, 0x00, 0x00, 0x00, 0x00, 0x00,
   0x00, 0x30, 0x47, 0x00, 0x00, 0x00, 0x00, 0x00, 0x00, 0x80, 0x20, 0x00,
   0x30, 0x02, 0x00, 0x00, 0x00, 0x00, 0x00, 0x00, 0x30, 0x48, 0x00, 0x00,
   0x00, 0x00, 0x00, 0x00, 0x80, 0x20, 0x00, 0x10, 0x02, 0x00, 0x00, 0x00,
   0x00, 0x00, 0x00, 0x30, 0x58, 0x00, 0x00, 0x00, 0x00, 0x00, 0x00, 0x80,
   0x41, 0x00, 0x30, 0x02, 0x00, 0x00, 0x00, 0x00, 0x00, 0x00, 0x30, 0x50,
   0x00, 0x00, 0x00, 0x00, 0x00, 0x00, 0x00, 0x9f, 0x00, 0x58, 0x03, 0x00,
   0x00, 0x00, 0x00, 0x00, 0x00, 0x10, 0x50, 0x00, 0x00, 0x00, 0x00, 0x00,
   0x00, 0x00, 0xf2, 0x00, 0x8c, 0x01, 0x00, 0x00, 0x00, 0x00, 0x00, 0x00,
   0x10, 0x50, 0x00, 0x00, 0x00, 0x00, 0x00, 0x00, 0x00, 0x02, 0x03, 0x86,
   0x01, 0x00, 0x00, 0x00, 0x00, 0x00, 0x00, 0x10, 0x5e, 0x00, 0x00, 0x00,
   0x00, 0x00, 0x00, 0x00, 0x04, 0xfe, 0x83, 0x01, 0x00, 0x00, 0x00, 0x00,
   0x00, 0x00, 0x10, 0x5b, 0x00, 0x00, 0x00, 0x00, 0x00, 0x00, 0x00, 0x08,
   0x08, 0x82, 0x00, 0x00, 0x00, 0x00, 0x00, 0x00, 0x00, 0x90, 0x5d, 0x00,
   0x00, 0x00, 0x00, 0x00, 0x00, 0x00, 0x38, 0x0c, 0x42, 0x00, 0x00, 0x00,
   0x00, 0x00, 0x00, 0x00, 0x90, 0x4e, 0x00, 0x00, 0x00, 0x00, 0x00, 0x00,
   0x00, 0xe0, 0x07, 0x63, 0x00, 0x00, 0x00, 0x00, 0x00, 0x00, 0x00, 0x90,
   0x48, 0x00, 0x00, 0x00, 0x00, 0x00, 0x00, 0x00, 0xc0, 0xc0, 0x30, 0x00,
   0x00, 0x00, 0x00, 0x00, 0x00, 0x00, 0x90, 0x48, 0x00, 0x00, 0x00, 0x00,
   0x00, 0x00, 0x00, 0x80, 0x47, 0x0c, 0x00, 0x00, 0x00, 0x00, 0x00, 0x00,
   0x00, 0x90, 0x4c, 0x00, 0x00, 0x00, 0x00, 0x00, 0x00, 0x00, 0x00, 0xf8,
   0x07, 0x00, 0x00, 0x00, 0x00, 0x00, 0x00, 0x00, 0x10, 0x45, 0x00, 0x00,
   0x00, 0x00, 0x00, 0x00, 0x00, 0x00, 0x00, 0x00, 0x00, 0x00, 0x00, 0x00,
   0x00, 0x00, 0x00, 0x10, 0x46, 0x00, 0x00, 0x00, 0x00, 0x00, 0x00, 0x00,
   0x00, 0x00, 0x00, 0x00, 0x00, 0x00, 0x00, 0x00, 0x00, 0x00, 0x10, 0x40,
   0x00, 0x00, 0x00, 0x00, 0x00, 0x00, 0x00, 0x00, 0x00, 0x00, 0x00, 0x00,
   0x00, 0x00, 0x00, 0x00, 0x00, 0x10, 0x40, 0x00, 0x00, 0x00, 0x00, 0x00,
   0x00, 0x00, 0x00, 0x00, 0x00, 0x00, 0x00, 0x00, 0x00, 0x00, 0x00, 0x00,
   0x10, 0x40, 0x00, 0x00, 0x00, 0x00, 0x00, 0x00, 0x00, 0x00, 0x00, 0x00,
   0x00, 0x00, 0x00, 0x00, 0x00, 0x00, 0x00, 0x10, 0x40, 0x00, 0x00, 0x00,
   0x00, 0x00, 0x00, 0x00, 0x00, 0x00, 0x00, 0x00, 0x00, 0x00, 0x00, 0x00,
   0x00, 0x00, 0x10, 0x40, 0x00, 0x00, 0x00, 0x00, 0x00, 0x00, 0x00, 0x00,
   0x00, 0x00, 0x00, 0x00, 0x00, 0x00, 0x00, 0x00, 0x00, 0x10, 0x40, 0x00,
   0x00, 0x00, 0x00, 0x00, 0x00, 0x00, 0x00, 0x00, 0x00, 0x00, 0x00, 0x00,
   0x00, 0x00, 0x00, 0x00, 0x10, 0x40, 0x00, 0x00, 0x00, 0x00, 0x00, 0x00,
   0x00, 0x00, 0x00, 0x00, 0x00, 0x00, 0x00, 0x00, 0x00, 0x00, 0x00, 0x10,
   0x42, 0x00, 0x00, 0x00, 0x00, 0x00, 0x00, 0x00, 0x00, 0x00, 0x00, 0x00,
   0x00, 0x00, 0x00, 0x00, 0x00, 0x00, 0x10, 0x42, 0x00, 0x00, 0x00, 0x00,
   0x00, 0x00, 0x00, 0x00, 0x00, 0x00, 0x00, 0x00, 0x00, 0x00, 0x00, 0x00,
   0x00, 0x10, 0x41, 0x00, 0x00, 0x00, 0x00, 0x00, 0x00, 0x00, 0x00, 0x00,
   0x00, 0x00, 0x00, 0x00, 0x00, 0x00, 0x00, 0x00, 0x10, 0x41, 0x00, 0x00,
   0x00, 0x00, 0x00, 0x00, 0x00, 0x00, 0x00, 0x00, 0x00, 0x00, 0x00, 0x00,
   0x00, 0x00, 0x00, 0x90, 0x41, 0x00, 0x00, 0x00, 0x00, 0x00, 0x00, 0x00,
   0x00, 0x00, 0x00, 0x00, 0x00, 0x00, 0x00, 0x00, 0x00, 0x00, 0x90, 0x40,
   0x00, 0x00, 0x00, 0x00, 0x00, 0x00, 0x00, 0x00, 0x00, 0x00, 0x00, 0x00,
   0x00, 0x00, 0x00, 0x00, 0x00, 0x90, 0x40, 0x00, 0x00, 0x00, 0x00, 0x00,
   0x00, 0x00, 0x00, 0x00, 0x00, 0x00, 0x00, 0x00, 0x00, 0x00, 0x00, 0x00,
   0xd0, 0x70, 0x00, 0x00, 0x00, 0x00, 0x00, 0x00, 0x00, 0x00, 0x00, 0x00,
   0x00, 0x00, 0x00, 0x00, 0x00, 0x00, 0x00, 0x50, 0x48, 0x00, 0x00, 0x00,
   0x00, 0x00, 0x00, 0x00, 0x00, 0x00, 0x00, 0x00, 0x00, 0x00, 0x00, 0x00,
   0x00, 0x00, 0x50, 0x4c, 0x00, 0x00, 0x00, 0x00, 0x00, 0x00, 0x00, 0x00,
   0x00, 0x00, 0x00, 0x00, 0x00, 0x00, 0x00, 0x00, 0x00, 0x70, 0x46, 0x00,
   0x00, 0x00, 0x00, 0x00, 0x00, 0x00, 0x00, 0x00, 0x00, 0x00, 0x00, 0x00,
   0x00, 0x00, 0x00, 0x00, 0x30, 0x42, 0x00, 0x00, 0x00, 0x00, 0x00, 0x00,
   0x00, 0x00, 0x00, 0x00, 0x00, 0x00, 0x00, 0x00, 0x00, 0x00, 0x00, 0x30,
   0x43, 0x00, 0x00, 0x00, 0x00, 0x00, 0x00, 0x00, 0x00, 0x00, 0x00, 0x00,
   0x00, 0x00, 0x00, 0x00, 0x00, 0x00, 0x30, 0x71, 0x00, 0x00, 0x00, 0x00,
   0x00, 0x00, 0x00, 0x00, 0x00, 0x00, 0x00, 0x00, 0x00, 0x00, 0x00, 0x00,
   0x00, 0x30, 0x49, 0x00, 0x00, 0x00, 0x00, 0x00, 0x00, 0x00, 0x00, 0x00,
   0x00, 0x00, 0x00, 0x00, 0x00, 0x00, 0x00, 0x00, 0xb0, 0x45, 0x00, 0x00,
   0x00, 0x00, 0x00, 0x00, 0x00, 0x00, 0x00, 0x00, 0x00, 0x00, 0x00, 0x00,
   0x00, 0x00, 0x00, 0xb0, 0x74, 0x00, 0x00, 0x00, 0x00, 0x00, 0x00, 0x00,
   0x00, 0x00, 0x00, 0x00, 0x00, 0x00, 0x00, 0x00, 0x00, 0x00, 0xb0, 0x54,
   0x00, 0x00, 0x00, 0x00, 0x00, 0x00, 0x00, 0x00, 0x00, 0x00, 0x00, 0x00,
   0x00, 0x00, 0x00, 0x00, 0x00, 0x90, 0x54, 0x00, 0x00, 0x00, 0x00, 0x00,
   0x00, 0x00, 0x00, 0x00, 0x00, 0x00, 0x00, 0x00, 0x00, 0x00, 0x00, 0x00,
   0x90, 0x4c, 0x00, 0x00, 0x00, 0x00, 0x00, 0x00, 0x00, 0x00, 0x00, 0x00,
   0x00, 0x00, 0x00, 0x00, 0x00, 0x00, 0x00, 0xb0, 0x58, 0x00, 0x00, 0x00,
   0x00, 0x00, 0x00, 0x00, 0x00, 0x00, 0x00, 0x00, 0x00, 0x00, 0x00, 0x00,
   0x00, 0x00, 0xb0, 0x41, 0x00, 0x00, 0x00, 0x00, 0x00, 0x00, 0x00, 0x00,
   0x00, 0x00, 0x00, 0x00, 0x00, 0x00, 0x00, 0x00, 0x00, 0x30, 0x41, 0x00,
   0x00, 0x00, 0x00, 0x00, 0x00, 0x00, 0x00, 0x00, 0x00, 0x00, 0x00, 0x00,
   0x00, 0x00, 0x00, 0x00, 0x30, 0x42, 0x00, 0x00, 0x00, 0x00, 0x00, 0x00,
   0x00, 0x00, 0x00, 0x00, 0x00, 0x00, 0x00, 0x00, 0x00, 0x00, 0x00, 0x70,
   0x44, 0x00, 0x00, 0x00, 0x00, 0x00, 0x00, 0x00, 0x00, 0x00, 0x00, 0x00,
   0x00, 0x00, 0x00, 0x00, 0x00, 0x00, 0x50, 0x78, 0x00, 0x00, 0x00, 0x00,
   0x00, 0x00, 0x00, 0x00, 0x00, 0x00, 0x00, 0x00, 0x00, 0x00, 0x00, 0x00,
   0x00, 0x50, 0x40, 0x00, 0x00, 0x00, 0x00, 0x00, 0x00, 0x00, 0x00, 0x00,
   0x00, 0x00, 0x00, 0x00, 0x00, 0x00, 0x00, 0x00, 0xd0, 0x40, 0x00, 0x00,
   0x00, 0x00, 0x00, 0x00, 0x00, 0x00, 0x00, 0x00, 0x00, 0x00, 0x00, 0x00,
   0x00, 0x00, 0x00, 0x90, 0x40, 0x00, 0x00, 0x00, 0x00, 0x00, 0x00, 0x00,
   0x00, 0x00, 0x00, 0x00, 0x00, 0x00, 0x00, 0x00, 0x00, 0x00, 0x90, 0x40,
   0x00, 0x00, 0x00, 0x00, 0x00, 0x00, 0x00, 0x00, 0x00, 0x00, 0x00, 0x00,
   0x00, 0x00, 0x00, 0x00, 0x00, 0x10, 0x41, 0x00, 0x00, 0x00, 0x00, 0x00,
   0x00, 0x00, 0x00, 0x00, 0x00, 0x00, 0x00, 0x00, 0x00, 0x00, 0x00, 0x00,
   0x10, 0x41, 0x00, 0x00, 0x00, 0x00, 0x00, 0x00, 0x00, 0x00, 0x00, 0x00,
   0x00, 0x00, 0x00, 0x00, 0x00, 0x00, 0x00, 0x10, 0x43, 0x00, 0x00, 0x00,
   0x00, 0x00, 0x00, 0x00, 0x00, 0x00, 0x00, 0x00, 0x00, 0x00, 0x00, 0x00,
   0x00, 0x00, 0x10, 0x42, 0x00, 0x00, 0x00, 0x00, 0x00, 0x00, 0x00, 0x00,
   0x00, 0x00, 0x00, 0x00, 0x00, 0x00, 0x00, 0x00, 0x00, 0x10, 0x42, 0x00,
   0x00, 0x00, 0x00, 0x00, 0x00, 0x00, 0x00, 0x00, 0x00, 0x00, 0x00, 0x00,
   0x00, 0x00, 0x00, 0x00, 0x10, 0x42, 0x00, 0x00, 0x00, 0x00, 0x00, 0x00,
   0x00, 0x00, 0x00, 0x00, 0x00, 0x00, 0x00, 0x00, 0x00, 0x00, 0x00, 0x10,
   0x44, 0x00, 0x00, 0x00, 0x00, 0x00, 0x00, 0x00, 0x00, 0x00, 0x00, 0x00,
   0x00, 0x00, 0x00, 0x00, 0x00, 0x00, 0x10, 0x44, 0x00, 0x00, 0x00, 0x00,
   0x00, 0x00, 0x00, 0x00, 0x00, 0x00, 0x00, 0x00, 0x00, 0x00, 0x00, 0x00,
   0x00, 0x10, 0x44, 0x00, 0x00, 0x00, 0x00, 0x00, 0x00, 0x00, 0x00, 0x00,
   0x00, 0x00, 0x00, 0x00, 0x00, 0x00, 0x00, 0x00, 0x10, 0x48, 0x00, 0x00,
   0x00, 0x00, 0x00, 0x00, 0x00, 0x00, 0x00, 0x00, 0x00, 0x00, 0x00, 0x00,
   0x00, 0x00, 0x00, 0x10, 0x48, 0x00, 0x00, 0x00, 0x00, 0x00, 0x00, 0x00,
   0x00, 0x00, 0x00, 0x00, 0x00, 0x00, 0x00, 0x00, 0x00, 0x00, 0x10, 0x48,
   0x00, 0x00, 0x00, 0x00, 0x00, 0x00, 0x00, 0x00, 0x00, 0x00, 0x00, 0x00,
   0x00, 0x00, 0x00, 0x00, 0x00, 0x10, 0x48, 0x00, 0x00, 0x00, 0x00, 0x00,
   0x00, 0x00, 0x00, 0x00, 0x00, 0x00, 0x00, 0x00, 0x00, 0x00, 0x00, 0x00,
   0x10, 0x48, 0x00, 0x00, 0x00, 0x00, 0x00, 0x00, 0x00, 0x00, 0x00, 0x00,
   0x00, 0x00, 0x00, 0x00, 0x00, 0x00, 0x00, 0x10, 0x48, 0x00, 0x00, 0x00,
   0x00, 0x00, 0x00, 0x00, 0x00, 0x00, 0x00, 0x00, 0x00, 0x00, 0x00, 0x00,
   0x00, 0x00, 0x10, 0x48, 0x00, 0x00, 0x00, 0x00, 0x00, 0x00, 0x00, 0x00,
   0x00, 0x00, 0x00, 0x00, 0x00, 0x00, 0x00, 0x00, 0x00, 0x10, 0x48, 0x00,
   0x00, 0x00, 0x00, 0x00, 0x00, 0x00, 0x00, 0x00, 0x00, 0x00, 0x00, 0x00,
   0x00, 0x00, 0x00, 0x00, 0x10, 0x48, 0x00, 0x00, 0x00, 0x00, 0x00, 0x00,
   0x00, 0x00, 0x00, 0x00, 0x00, 0x00, 0x00, 0x00, 0x00, 0x00, 0x00, 0x10,
   0x4c, 0x00, 0x00, 0x00, 0x00, 0x00, 0x00, 0x00, 0x00, 0x00, 0x00, 0x00,
   0x00, 0x00, 0x00, 0x00, 0x00, 0x00, 0x10, 0x44, 0x00, 0x00, 0x00, 0x00,
   0x00, 0x00, 0x00, 0x00, 0x00, 0x00, 0x00, 0x00, 0x00, 0x00, 0x00, 0x00,
   0x00, 0x10, 0x42, 0x00, 0x00, 0x00, 0x00, 0x00, 0x00, 0x00, 0x00, 0x00,
   0x00, 0x00, 0x00, 0x00, 0x00, 0x00, 0x00, 0x00, 0x10, 0x40, 0x00, 0x00,
   0x00, 0x00, 0x00, 0x00, 0x00, 0x00, 0x00, 0x00, 0x00, 0x00, 0x00, 0x00,
   0x00, 0x00, 0x00, 0x10, 0x40, 0x00, 0x00, 0x00, 0x00, 0x00, 0x00, 0x00,
   0x00, 0x00, 0x00, 0x00, 0x00, 0x00, 0x00, 0x00, 0x00, 0x00, 0x10, 0x40,
   0x00, 0x00, 0x00, 0x00, 0x00, 0x00, 0x00, 0x00, 0x00, 0x00, 0x00, 0x00,
   0x00, 0x00, 0x00, 0x00, 0xff, 0xff, 0xff, 0xff, 0xff, 0xff, 0xff, 0xff,
   0xff, 0xff, 0xff, 0xff, 0xff, 0xff, 0xff, 0x1f, 0x00, 0x00, 0x00, 0x06,
   0x00, 0x00, 0x00, 0x00, 0x00, 0x00, 0x00, 0x00, 0x00, 0x00, 0x00, 0x00,
   0x00, 0x00, 0x18, 0x00, 0x00, 0x00, 0x04, 0x00, 0x00, 0x00, 0x00, 0x00,
   0x00, 0x80, 0xff, 0x7f, 0x00, 0x06, 0x00, 0x00, 0xf0, 0x09, 0x00, 0x00,
   0x00, 0x07, 0x7f, 0x00, 0x01, 0x00, 0x00, 0x00, 0x70, 0x00, 0xc0, 0x00,
   0xfc, 0x03, 0xf8, 0x11, 0x0c, 0x00, 0x00, 0x00, 0xf3, 0x01, 0x00, 0x01,
   0x00, 0x00, 0x00, 0x08, 0x7e, 0x00, 0x03, 0x00, 0x1e, 0x08, 0x02, 0x04,
   0x00, 0x00, 0x00, 0x62, 0xc0, 0xff, 0x00, 0x00, 0x00, 0x00, 0x84, 0xc3,
   0x00, 0x06, 0x00, 0x20, 0x08, 0x02, 0x04, 0x00, 0x00, 0x00, 0x02, 0x3f,
   0x02, 0x80, 0x7f, 0x80, 0x01, 0x84, 0x83, 0x01, 0x78, 0x00, 0xc0, 0x80,
   0x01, 0x1c, 0x00, 0x00, 0x00, 0x83, 0x71, 0x02, 0x40, 0xc0, 0xf9, 0x00,
   0x04, 0xfc, 0x00, 0xc0, 0xff, 0x80, 0xff, 0x0e, 0x30, 0x00, 0x00, 0x00,
   0x01, 0xf0, 0x01, 0x00, 0x00, 0x0f, 0x00, 0x04, 0x1c, 0x00, 0x00, 0x00,
   0x00, 0xde, 0x01, 0x70, 0x00, 0x00, 0x80, 0x01, 0x00, 0x00, 0x00, 0x00,
   0x00, 0x00, 0xf8, 0x03, 0x00, 0x00, 0x00, 0x00, 0x70, 0x00, 0x10, 0x00,
   0x00, 0xc0, 0xff, 0xff, 0xff, 0xff, 0xff, 0xff, 0xff, 0xff, 0xff, 0xff,
   0xff, 0xff, 0xff, 0xff, 0xff, 0x3f, 0x00, 0x00, 0x00, 0x00, 0x00, 0x00,
   0x00, 0x00, 0x00, 0x00, 0x00, 0x00, 0x00, 0x00, 0x00, 0x00, 0x00, 0x00,
   0x00, 0x00, 0x00, 0x00, 0x00, 0x00, 0x00, 0x00, 0x00, 0x00, 0x00, 0x00,
   0x00, 0x00, 0x00, 0x00, 0x00, 0x00, 0x00, 0x00, 0x00, 0x00, 0x00, 0x00,
   0x00, 0x00, 0x00, 0x00, 0x00, 0x00, 0x00, 0x00, 0x00, 0x00, 0x00, 0x00,
   0x00, 0x00, 0x00, 0x00, 0x00, 0x00, 0x00, 0x00, 0x00, 0x00, 0x00, 0x00,
   0x00, 0x00, 0x00, 0x00, 0x00, 0x00, 0x00, 0x00, 0x00, 0x00, 0x00, 0x00,
   0x00, 0x00, 0x00, 0x00, 0x00, 0x00, 0x00, 0x00, 0x00, 0x00, 0x00, 0x00,
   0x00, 0x00, 0x00, 0x00, 0x00, 0x00, 0x00, 0x00, 0x00, 0x00, 0x00, 0x00,
   0x00, 0x00, 0x00, 0x00, 0x00, 0x00, 0x00, 0x00, 0x00, 0x00, 0x00, 0x00,
   0x00, 0x00, 0x00, 0x00, 0x00, 0x00, 0x00, 0x00, 0x00, 0x00, 0x00, 0x00,
   0x00, 0x00, 0x00, 0x00, 0x00, 0x00, 0x00, 0x00, 0x00, 0x00, 0x00, 0x00,
   0x00, 0x00, 0x00, 0x00, 0x00, 0x00, 0x00, 0x00, 0x00, 0x00, 0x00, 0x00,
   0x00, 0x00, 0x00, 0x00, 0x00, 0x00, 0x00, 0x00, 0x00, 0x00, 0x00, 0x00,
   0x00, 0x00, 0x00, 0x00, 0x00, 0x00, 0x00, 0x00, 0x00, 0x00, 0x00, 0x00,
   0x00, 0x00, 0x00, 0x00, 0x00, 0x00, 0x00, 0x00, 0x00, 0x00, 0x00, 0x00,
   0x00, 0x00, 0x00, 0x00, 0x00, 0x00, 0x00, 0x00, 0x00, 0x00, 0x00, 0x00,
   0x00, 0x00, 0x00, 0x00, 0x00, 0x00, 0x00, 0x00, 0x00, 0x00, 0x00, 0x00,
   0x00, 0x00, 0x00, 0x00, 0x00, 0x00, 0x00, 0x00, 0x00, 0x00, 0x00, 0x00,
   0x00, 0x00, 0x00, 0x00, 0x00, 0x00, 0x00, 0x00, 0x00, 0x00, 0x00, 0x00,
   0x00, 0x00, 0x00, 0x00, 0x00, 0x00, 0x00, 0x00, 0x00, 0x00, 0x00, 0x00,
   0x00, 0x00, 0x00, 0x00, 0x00, 0x00, 0x00, 0x00, 0x00, 0x00, 0x00, 0x00,
   0x00, 0x00, 0x00, 0x00, 0x00, 0x00, 0x00, 0x00, 0x00, 0x00, 0x00, 0x00,
   0x00, 0x00, 0x00, 0x00, 0x00, 0x00, 0x00, 0x00, 0x00, 0x00, 0x00, 0x00,
   0x00, 0x00, 0x00, 0x00, 0x00, 0x00, 0x00, 0x00, 0x00, 0x00, 0x00, 0x00,
   0x00, 0x00, 0x00, 0x00, 0x00, 0x00, 0x00, 0x00, 0x00, 0x00, 0x00, 0x00,
   0x00, 0x00, 0x00, 0x00, 0x00, 0x00, 0x00, 0x00, 0x00, 0x00, 0x00, 0x00,
   0x00, 0x00, 0x00, 0x00, 0x00, 0x00, 0x00, 0x00, 0x00, 0x00, 0x00, 0x00,
   0x00, 0x00, 0x00, 0x00, 0x00, 0x00, 0x00, 0x00, 0x00, 0x00, 0x00, 0x00,
   0x00, 0x00, 0x00, 0x00, 0x00, 0x00, 0x00, 0x00, 0x00, 0x00, 0x00, 0x00,
   0x00, 0x00, 0x00, 0x00, 0x00, 0x00, 0x00, 0x00, 0x00, 0x00, 0x00, 0x00,
   0x00, 0x00, 0x00, 0x00, 0x00, 0x00, 0x00, 0x00, 0x00, 0x00, 0x00, 0x00,
   0x00, 0x00, 0x00, 0x00, 0x00, 0x00, 0x00, 0x00, 0x00, 0x00, 0x00, 0x00,
   0x00, 0x00, 0x00, 0x00, 0x00, 0x00, 0x00, 0x00, 0x00, 0x00, 0x00, 0x00,
   0x00, 0x00, 0x00, 0x00, 0x00, 0x00, 0x00, 0x00, 0x00, 0x00, 0x00, 0x00,
   0x00, 0x00, 0x00, 0x00, 0x00, 0x00, 0x00, 0x00, 0x00, 0x00, 0x00, 0x00,
   0x00, 0x00, 0x00, 0x00, 0x00, 0x00, 0x00, 0x00, 0x00, 0x00, 0x00, 0x00,
   0x00, 0x00, 0x00, 0x00, 0x00, 0x00, 0x00, 0x00, 0x00, 0x00, 0x00, 0x00,
   0x00, 0x00, 0x00, 0x00, 0x00, 0x00, 0x00, 0x00 };
